# xmcd CD database file
#
# Track frame offsets:
#	150
#	12837
#	24027
#	35784
#	46971
#	58683
#	72652
#	84594
#	96255
#	108408
#	118993
#	130776
#	145308
#	158008
#	171740
#	183252
#	193044
#	206810
#	218989
#	228355
#	241201
#	251852
#	265304
#	276603
#	289710
#
# Disc length: 4053 seconds
#
# Revision: 0
# Processed by: cddbd v1.5.1PL2 Copyright (c) Steve Scherf et al.
# Submitted via: CDex 1.51
#
DISCID=850fd319
DTITLE=Various Artist - Downhome Blues Classics, Texas, Disc 3
DYEAR=2005
DGENRE=Blues
TTITLE0=Frankie Lee Sims - Home Again Blues
TTITLE1=Lil' Son Jackson - Roberta Blues
TTITLE2=Texas Alexander - Crossroads
TTITLE3=Thunder Smith - Cruel Hearted Woman
TTITLE4=L.C. Williams - Boogie All The Time
TTITLE5=Ernest Lewis - Rosa Lee
TTITLE6=Stick Horse Hammond - Gamblin' Man
TTITLE7=Johnny Beck - You Gotta Lay Down Mama
TTITLE8=Manny Nichols - Worried Life
TTITLE9=Monister Parker - You Gonna Need Me
TTITLE10=Smokey Hogg - Misery Blues
TTITLE11=Country Slim - What Wrong Have I Done
TTITLE12=Mercy Dee - Ba-Ba-Du-Lay Blues (G.I. Fever)
TTITLE13=James Tisdom - Throw This Poor Dog A Bone
TTITLE14=Andy Thomas - My Baby Quit Me Blues
TTITLE15=The Sugarman - Which Woman Do I Love
TTITLE16=D.C. Washington - Happy Home Blues
TTITLE17=Willie Lane - Howlin' Wolf
TTITLE18=Miss Country Slim - In My Girlish Days
TTITLE19=Thunder Smith - Low Down Dirty Ways
TTITLE20=Andrew Thomas - Chicago Blues
TTITLE21=Big Son Tillis - Zetela Blues
TTITLE22=Sonny Boy Davis - I Don't Live Here No More
TTITLE23=Clarence Garlow - I'm In A Boogie Mood
TTITLE24=West Texas Slim - Little Mae Belle
EXTD=YEAR: 2005
EXTT0=
EXTT1=
EXTT2=
EXTT3=
EXTT4=
EXTT5=
EXTT6=
EXTT7=
EXTT8=
EXTT9=
EXTT10=
EXTT11=
EXTT12=
EXTT13=
EXTT14=
EXTT15=
EXTT16=
EXTT17=
EXTT18=
EXTT19=
EXTT20=
EXTT21=
EXTT22=
EXTT23=
EXTT24=
PLAYORDER=
